<?xml version="1.0" encoding="UTF-8"?><svg xmlns="http://www.w3.org/2000/svg" viewBox="0 0 32 32"><defs><style>.d{fill:#fff;}</style></defs><g id="a"/><g id="b"><g id="c"><rect class="d" x="0" y="0" width="32" height="32" rx="6.5" ry="6.5"/><g><path d="M7.41,15.96c0-3.2,0-6.39,0-9.59,0-1.54,1.21-2.74,2.75-2.74,3.87,0,7.75,0,11.62,0,1.64,0,2.8,1.17,2.8,2.82,0,6.39,0,12.78,0,19.17,0,1.39-.96,2.5-2.31,2.67-.37,.05-.74,.08-1.11,.08-3.65,0-7.3,0-10.96,0-1.61,0-2.8-1.18-2.8-2.79,0-3.21,0-6.42,0-9.63Zm1.56,0h.02c0,3.17,.02,6.34-.01,9.51,0,.73,.61,1.34,1.4,1.33,3.78-.03,7.56-.01,11.33-.01,.77,0,1.31-.51,1.31-1.28,0-6.37,0-12.73,0-19.1,0-.65-.52-1.19-1.17-1.2-3.89,0-7.78,0-11.67,0-.56,0-1.01,.32-1.15,.84-.07,.25-.06,.52-.06,.78,0,3.04,0,6.09,0,9.13Z"/><path class="d" d="M8.97,15.96c0-3.04,0-6.09,0-9.13,0-.26-.01-.53,.06-.78,.15-.52,.59-.84,1.15-.84,3.89,0,7.78,0,11.67,0,.65,0,1.17,.54,1.17,1.2,0,6.37,0,12.73,0,19.1,0,.77-.54,1.28-1.31,1.28-3.78,0-7.56-.02-11.33,.01-.79,0-1.41-.6-1.4-1.33,.03-3.17,.01-6.34,.01-9.51h-.02Zm7.06-8.29h0c-1.3,0-2.6,0-3.9,0-.64,0-.95,.31-.95,.93-.01,1.67-.01,3.35,0,5.02,0,.7,.29,.99,.98,.99,2.57,.01,5.14,.01,7.71,0,.71,0,.99-.31,.99-1.03,0-1.6,0-3.21,0-4.81,0-.87-.25-1.12-1.13-1.12-1.23,0-2.46,0-3.69,0Zm.09,12.16c1.34,0,2.69,0,4.03,0,.51,0,.73-.2,.74-.67,0-.47-.21-.67-.73-.67-2.69,0-5.37,0-8.06,0-.54,0-.79,.21-.8,.66,0,.47,.23,.68,.78,.68,1.34,0,2.69,0,4.03,0Zm.59,3.52c0,.41,0,.83,0,1.24,0,.5,.21,.74,.62,.78,.38,.04,.76-.25,.78-.68,.03-.88,.03-1.77,0-2.65-.02-.42-.37-.68-.76-.65-.42,.03-.63,.28-.63,.75,0,.4,0,.8,0,1.2Zm2.75-.05h0c0,.44-.02,.88,0,1.33,.02,.44,.28,.67,.68,.67,.36,0,.66-.24,.67-.64,.02-.88,.03-1.77,0-2.65-.01-.46-.35-.73-.75-.7-.38,.03-.6,.31-.6,.79,0,.4,0,.8,0,1.2Zm-6.76,.06h0c0-.44,.01-.88,0-1.32-.01-.33-.16-.59-.52-.65-.32-.06-.58,.05-.73,.33-.07,.14-.1,.32-.1,.48-.01,.8-.01,1.6,0,2.4,0,.47,.29,.78,.68,.78,.4,0,.67-.3,.68-.77,.01-.41,0-.83,0-1.24Zm1.35,.03c0,.4,0,.8,0,1.2,0,.5,.23,.76,.65,.78,.4,.02,.69-.26,.7-.74,.02-.86,.02-1.71,0-2.57,0-.44-.31-.69-.72-.67-.39,.02-.62,.27-.63,.72,0,.43,0,.86,0,1.28Z"/><path d="M16.03,7.67c1.23,0,2.46,0,3.69,0,.89,0,1.13,.25,1.13,1.12,0,1.6,0,3.21,0,4.81,0,.72-.28,1.02-.99,1.03-2.57,0-5.14,0-7.71,0-.69,0-.97-.29-.98-.99,0-1.67,0-3.35,0-5.02,0-.63,.32-.93,.95-.93,1.3,0,2.6,0,3.9,0h0Zm3.42,1.46h-6.86v4.02h6.86v-4.02Z"/><path d="M16.13,19.83c-1.34,0-2.69,0-4.03,0-.55,0-.79-.21-.78-.68,0-.45,.26-.66,.8-.66,2.69,0,5.37,0,8.06,0,.52,0,.74,.2,.73,.67,0,.47-.23,.67-.74,.67-1.34,0-2.69,0-4.03,0Z"/><path d="M16.71,23.36c0-.4,0-.8,0-1.2,0-.47,.22-.73,.63-.75,.4-.03,.75,.23,.76,.65,.03,.88,.03,1.77,0,2.65-.02,.43-.39,.72-.78,.68-.41-.04-.61-.29-.62-.78,0-.41,0-.83,0-1.24Z"/><path d="M19.47,23.31c0-.4,0-.8,0-1.2,0-.48,.23-.76,.6-.79,.4-.03,.74,.24,.75,.7,.03,.88,.02,1.77,0,2.65-.01,.4-.3,.64-.67,.64-.4,0-.65-.23-.68-.67-.02-.44,0-.88,0-1.33h0Z"/><path d="M12.7,23.37c0,.41,0,.83,0,1.24-.01,.47-.28,.77-.68,.77-.38,0-.67-.31-.68-.78,0-.8,0-1.6,0-2.4,0-.16,.03-.34,.1-.48,.15-.28,.42-.39,.73-.33,.35,.07,.5,.33,.52,.65,.02,.44,0,.88,0,1.32h0Z"/><path d="M14.06,23.4c0-.43,0-.86,0-1.28,0-.44,.24-.7,.63-.72,.41-.02,.71,.23,.72,.67,.02,.86,.02,1.71,0,2.57-.01,.49-.3,.76-.7,.74-.43-.02-.65-.28-.65-.78,0-.4,0-.8,0-1.2Z"/><path class="d" d="M19.45,9.14v4.02h-6.86v-4.02h6.86Z"/></g></g></g></svg>